# xmcd
#
# Track frame offsets:
# 150
# 10522
# 24095
# 34252
# 47137
# 59905
# 71667
# 82467
# 92515
# 101912
# 113122
# 126882
#
# Disc length: 1811 seconds
#
#
# Revision: 3
# Processed by: cddbd v1.5.2PL0 Copyright (c) Steve Scherf et al.
# Submitted via: FreeRIP 2.60 
#
DISCID=a307110c
DTITLE=Buck Owens - Christmas Shopping
DYEAR=1968
DGENRE=country
TTITLE0=Christmas Shopping
TTITLE1=Christmas Time Is Near
TTITLE2=The Jolly Christmas Polka
TTITLE3=All I Want For Christmas Is My Daddy
TTITLE4=Merry Christmas From Our House To Yours
TTITLE5=Good Old Fashioned Country Christmas
TTITLE6=One Of Everything You Got
TTITLE7=Home On Christmas Day
TTITLE8=Christmas Schottische
TTITLE9=A Very Merry Christmas
TTITLE10=It's Not What You Give
TTITLE11=Tomorrow Is Christmas Day
EXTD=Buck's 2nd Christmas Lp\nOriginaly Released in 1968 On Capital Records
EXTT0=
EXTT1=
EXTT2=
EXTT3=
EXTT4=
EXTT5=
EXTT6=
EXTT7=
EXTT8=
EXTT9=
EXTT10=
EXTT11=
PLAYORDER=
